<?xml version="1.0" encoding="UTF-8"?>
<svg xmlns="http://www.w3.org/2000/svg" viewBox="0 0 473.16129 727.82178" role="img">
  <title>Logo San Marcial</title>
  <path id="path1" d="M 317.4,0.98637483 C 299.9,3.1863748 277.5,10.586375 255.5,21.286375 l -13,6.3 -2.1,-2.5 c -2.7,-3.1 -4.6,-2.7 -13.5,2.7 -6.8,4.1 -7.6,5.7 -5.6,11.6 0.6,1.7 -0.2,2.7 -3.9,5.4 -7.1,5.1 -21.8,19.4 -30.3,29.5 -19.8,23.7 -34.1,52.899995 -31.8,65.099995 0.9,4.7 5,8.9 10.2,10.5 6,1.8 26.2,2.4 37.2,1 38.8,-4.7 84.7,-22.1 130,-49.3 30.2,-18.099995 56.1,-40.099995 62.6,-52.999995 7.6,-15.3 0.5,-30.5 -18.8,-39.6000002 -16.3,-7.8 -37.6,-10.7 -59.1,-7.99999997 z" style="fill:#d40000;stroke:none;stroke-width:0.1" />
  <path id="path2" d="m 369.5,90.986375 c -44.3,33.399995 -105.3,60.999995 -152.8,69.199995 -7.1,1.2 -12.8,2.5 -12.8,3 0,1.9 7.4,12.1 13.6,18.6 9.3,9.9 18,16.3 30.9,22.6 16.1,7.8 22,9.6 66.7,20 21.1,4.9 31.3,9.8 41.3,19.8 8.5,8.5 14.4,19.4 17.1,31.3 2.1,9.7 1.5,24 -1.5,33.4 -4.3,13.4 -25.1,46.4 -45.3,71.7 -17.1,21.4 -34.3,40.2 -75.7,82.8 -49.6,51 -72.4,79.5 -86,107.8 -10.9,22.4 -15.4,40.8 -15.3,61.7 0.1,31 10.4,62.3 28.5,86.9 4.6,6.2 3.8,6.9 8.1,-6.6 l 2.7,-8.2 -4,-7.8 c -10.9,-21.8 -17.1,-49.2 -15.8,-70.2 1.1,-17 5.1,-31.9 13.6,-49.6 12.4,-25.9 31.6,-49.9 83.2,-103.5 37.4,-38.9 49.3,-51.9 62.6,-68.5 22.2,-27.6 37.6,-54.4 48.4,-84.5 2.8,-8 8,-20.1 11.4,-27 21.4,-42.8 30,-72.6 31.2,-107.5 1,-30.1 -5.9,-56.9 -21.3,-82.4 -5,-8.199995 -15.2,-22.099995 -16.3,-21.999995 -0.3,0 -5.9,4 -12.5,9 z" style="fill:#000000;stroke:none;stroke-width:0.1" />
  <path id="path3" d="m 163.4,288.58637 c -15.8,1 -42.2,6.5 -43.2,8.9 -0.6,1.7 5.7,24.3 22.4,79.4 7.4,24.5 14.9,49.1 16.5,54.8 l 3.1,10.3 7.1,-0.7 c 3.9,-0.4 7.2,-0.8 7.4,-0.9 0.6,-0.5 2.1,-70.9 2.4,-110.5 l 0.3,-41.5 -5.5,-0.1 c -3,0 -7.7,0.1 -10.5,0.3 z" style="fill:#000000;stroke:none;stroke-width:0.1" />
  <path id="path4" d="m 188.8,300.98637 c 0,6.8 -0.2,13.7 -0.4,15.4 -0.2,1.6 -0.6,18.3 -0.9,37 -0.3,18.7 -0.9,46.2 -1.3,61 l -0.6,27 6.9,1.6 c 3.8,0.9 7,1.6 7,1.5 0.2,-0.1 21.9,-60 36.9,-101.6 5.8,-16.2 11.3,-31.2 12.1,-33.3 2.1,-5.5 1.8,-6.5 -2.3,-8.3 -13.9,-6 -32.7,-10.6 -49,-12 l -8.3,-0.7 z" style="fill:#000000;stroke:none;stroke-width:0.1" />
  <path id="path5" d="m 93.7,305.28637 c -5.9,2.4 -13.3,5.8 -16.5,7.6 -6.9,3.8 -27.3,17.3 -27.3,18 0,0.3 15.6,20.7 34.5,45.5 53.5,69.7 55.7,72.5 56.3,72.5 2,0 11.2,-4.6 11.2,-5.5 0,-1.2 -1,-4.6 -12.1,-40 -10.7,-34.1 -33.5,-101.9 -34.5,-102.2 -0.5,-0.1 -5.7,1.7 -11.6,4.1 z" style="fill:#000000;stroke:none;stroke-width:0.1" />
  <path id="path6" d="m 263.5,310.78637 c -1.3,2 -23,57.7 -37.6,96.3 l -15.8,41.7 3.2,1.9 3.2,1.9 9.5,-12 c 5.2,-6.6 20.8,-26.5 34.7,-44.1 35.3,-44.7 45.2,-57.4 45.2,-57.9 0,-1.4 -20.4,-16.7 -29.6,-22.3 -11.1,-6.6 -11.9,-7 -12.8,-5.5 z" style="fill:#000000;stroke:none;stroke-width:0.1" />
  <path id="path7" d="m 30.8,346.08637 c -6.8,5.9 -24.8,25.1 -29,30.9 l -1.8,2.6 4.3,3 c 13.2,9.3 116.6,78.3 117.3,78.3 0.4,-0.1 2.3,-1.4 4.2,-2.9 2.3,-2 3,-3.3 2.5,-4.3 -6.8,-11 -87.6,-113.8 -89.4,-113.8 -0.5,0 -4.1,2.8 -8.1,6.2 z" style="fill:#000000;stroke:none;stroke-width:0.1" />
  <path id="path8" d="m 398.7,380.08637 c 1.2,60.7 -19,108.9 -70.9,169.2 -5.7,6.6 -24.6,26.5 -42,44.2 -48.7,49.6 -63.2,66.1 -79.4,90.4 -9.2,13.9 -15.3,25.4 -18.4,35 -3.4,10.4 -3.7,10.2 8.2,7 27,-7.3 59.8,-18.1 85.7,-28.3 61.8,-24.3 108.9,-53.5 141,-87.4 36.9,-39 53.3,-81.2 49.8,-127.7 -3,-40.1 -23.4,-75.2 -64.6,-111.2 -4.6,-4.1 -8.7,-7.4 -9.1,-7.4 -0.3,0 -0.5,7.3 -0.3,16.2 z" style="fill:#000000;stroke:none;stroke-width:0.1" />
  <path id="path9" d="m 161,455.48637 c -9,2.4 -18,7.5 -24.5,13.7 l -6.1,5.9 22.5,21.8 c 12.3,12 22.8,21.6 23.2,21.4 0.4,-0.2 4.2,-5.5 8.4,-11.7 4.3,-6.1 12.2,-17.3 17.6,-24.8 5.4,-7.5 9.8,-14.1 9.8,-14.5 0,-1 -6.3,-5.1 -12.7,-8.3 -9.8,-4.9 -27.1,-6.5 -38.2,-3.5 z" style="fill:#000000;stroke:none;stroke-width:0.1" />
</svg>
