<svg xmlns="http://www.w3.org/2000/svg" viewBox="0 0 180 272" role="img" aria-label="Logotipo de San Marcial Irun">
  <path fill="#e00012" d="M95 12c31-8 60 0 65 18 6 20-16 41-50 49-35 9-68 0-74-19-6-18 18-39 59-48Z"/>
  <path fill="#060b0d" d="M105 77c24 7 43 25 47 50 6 38-18 74-45 109-10 13-18 25-23 34-13-31-1-59 19-90 18-28 40-56 32-80-4-12-15-20-30-23Z"/>
  <path fill="#060b0d" d="M21 143c18-19 43-29 72-30 7 15 6 32-4 47-22-5-45-11-68-17Z"/>
  <path fill="#060b0d" d="M97 170c22-14 48-22 78-26 4 39-21 75-79 109-11-31-9-59 1-83Z"/>
  <path fill="#060b0d" d="M72 149c7 5 14 12 20 20l-29 27c-6-12-15-22-28-30 11-8 23-13 37-17Z"/>
  <path fill="none" stroke="#f4b000" stroke-linecap="round" stroke-width="4" d="M35 166c17 11 29 24 38 40M52 153c14 12 25 28 33 47M71 146c8 15 13 31 16 47"/>
  <path fill="none" stroke="#f4b000" stroke-linecap="round" stroke-width="4" d="M86 91c17 6 37 4 60-4"/>
</svg>
